Simulation
nRows=44
nColumns=15
endheader
time  TH_x TH_y TH_z SC_y  SC_z  SC_x  AC_y  AC_z  AC_x  GH_y  GH_z  GH_yy  EL_x  PS_y
0.0  0.000000  0.000000  0.000000  -21.29571779905723  0.7646941007878242  8.104992651640123  59.90961716940585  -3.895734659454807  -10.512961560836613  9.123587899070714  18.14374060120495  22.031204137818367  32.06133163700335  120.000000
0.025  0.000000  0.000000  0.000000  -21.517433311125323  0.7280819978362171  7.994582291410051  60.067813370522224  -3.4716136745813064  -10.504982001711625  8.43928267760541  18.368319715678027  22.510768920471122  31.834774629904135  120.000000
0.05  0.000000  0.000000  0.000000  -21.74710443986493  0.6755013050319126  7.879646924250628  60.230510848011676  -3.0820287807511044  -10.458117679848684  7.904746295751951  18.555338579775125  22.787818755028244  31.635642793859365  120.000000
0.07500000000000001  0.000000  0.000000  0.000000  -21.974234872098986  0.6217214436275602  7.762469338397721  60.39369551583322  -2.7168402216002114  -10.371565694104497  7.528445029206041  18.714583161986774  22.850429860060892  31.460489251163665  120.000000
0.1  0.000000  0.000000  0.000000  -22.200791991276336  0.5796821818265483  7.64304539569757  60.56002608703435  -2.3628170189315685  -10.247624528076935  7.322751502664748  18.861947134745833  22.68042147938995  31.30937875076755  120.000000
0.125  0.000000  0.000000  0.000000  -22.429329723901475  0.5589843289965373  7.522651346348839  60.736970606663824  -2.008141043140371  -10.09455941795832  7.282509678644396  19.015585447506947  22.277456866709997  31.180243912847946  120.000000
0.15000000000000002  0.000000  0.000000  0.000000  -22.664416773581166  0.5669659013458571  7.406287874263917  60.93055539767582  -1.6446490295480507  -9.922052102646203  7.382273382023339  19.194019433614184  21.662098869816838  31.072514275899245  120.000000
0.17500000000000002  0.000000  0.000000  0.000000  -22.91082141164134  0.6052099445334008  7.30426508591426  61.14289234003925  -1.2673502989870082  -9.738579797502638  7.573569166345458  19.41304146696649  20.879453783265472  30.984009464865018  120.000000
0.2  0.000000  0.000000  0.000000  -23.17203875486997  0.6728416100235826  7.227541053277321  61.3743116990009  -0.8741997857706576  -9.54903719357178  7.802012889974095  19.686442321990757  19.98111285848777  30.913953287770823  120.000000
0.225  0.000000  0.000000  0.000000  -23.44940699538314  0.7661319008233913  7.186177098409159  61.626349508397695  -0.46402669392898566  -9.356203844418847  8.014951930963404  20.024460206926985  19.017767928213466  30.86140937286365  120.000000
0.25  0.000000  0.000000  0.000000  -23.74316384192696  0.8819291943201756  7.186355040275779  61.90231954199992  -0.036301861581985236  -9.160676299920032  8.170203392293276  20.435282667487684  18.02923199903478  30.826589376107062  120.000000
0.275  0.000000  0.000000  0.000000  -24.052909323091704  1.0161104747350664  7.232321869740578  62.20618775584882  0.4094284664086856  -8.962769585198824  8.234483408526186  20.92377986559335  17.04613946921408  30.808789986534357  120.000000
0.30000000000000004  0.000000  0.000000  0.000000  -24.378648789443197  1.1648533837325905  7.325675148433604  62.541597014856585  0.8733888618177778  -8.76196500289931  8.186178514882993  21.492692540642953  16.086602674340977  30.806782100915655  120.000000
0.325  0.000000  0.000000  0.000000  -24.720580900434527  1.3235403374428492  7.466273613469506  62.91115307776447  1.356297267099418  -8.557933331120879  8.014064103356874  22.14249867014342  15.15827845524083  30.81774040495954  120.000000
0.35000000000000003  0.000000  0.000000  0.000000  -25.07871468239297  1.4878400677613464  7.651705304561762  63.315948300467355  1.8592706434428767  -8.350013963283233  7.717646817542038  22.87224811185631  14.258785649348601  30.837907351676236  120.000000
0.375  0.000000  0.000000  0.000000  -25.452617491425272  1.6529852446289401  7.8785797787037195  63.755028564649116  2.3831302317925656  -8.13843721256017  7.304717712772994  23.67989831253489  13.379542578110927  30.862215756201557  120.000000
0.4  0.000000  0.000000  0.000000  -25.84055244112298  1.8152118884952324  8.143254998688109  64.22526659630842  2.9276346694298505  -7.924458973551752  6.790289290684698  24.562708713803122  12.508152656715046  30.88472318186544  120.000000
0.42500000000000004  0.000000  0.000000  0.000000  -26.239363031801158  1.971562876056985  8.441093338940519  64.72123911743161  3.4919783967916604  -7.710383459976457  6.193874335260388  25.517754616206354  11.631708582119446  30.898434682810972  120.000000
0.45  0.000000  0.000000  0.000000  -26.64473853880972  2.1202298692301356  8.767415803875856  65.23522748274164  4.074306814987554  -7.499048498182733  5.538196809724752  26.541815916648645  10.738813617418327  30.895770096492495  120.000000
0.47500000000000003  0.000000  0.000000  0.000000  -27.051365366899194  2.260314035175141  9.116781194737888  65.7576101437576  4.672055303058189  -7.293232330473488  4.846416635012188  27.631718959195112  9.820852912863254  30.869107989367382  120.000000
0.5  0.000000  0.000000  0.000000  -27.453808221754613  2.391797280529066  9.484063203195063  66.27774913717205  5.281726327536989  -7.0952957917832595  4.141389848816634  28.783959199135438  8.87262122176379  30.812006576471358  120.000000
0.525  0.000000  0.000000  0.000000  -27.846669993004067  2.5155701404036352  9.863214945170919  66.78500663345864  5.899359323912615  -6.906657720755985  3.4431926788177565  29.994827922018803  7.891861022990779  30.720444198808327  120.000000
0.55  0.000000  0.000000  0.000000  -28.225585281415395  2.632698197699203  10.248855752913206  67.2692604114894  6.520180762085033  -6.727641853747688  2.768463534660496  31.259806421241507  6.879937196909138  30.594029379176806  120.000000
0.5750000000000001  0.000000  0.000000  0.000000  -28.587438018474526  2.7449087274105066  10.63593625284907  67.7216804394274  7.138460833739106  -6.557818323097216  2.128355379026685  32.573649820817536  5.841640241207029  30.436543037116106  120.000000
0.6000000000000001  0.000000  0.000000  0.000000  -28.930374133170734  2.8543167130004203  11.020643880867343  68.13507786984434  7.747699795026632  -6.396788947714309  1.528838359796323  33.92984174714832  4.785374593758124  30.254974360700192  120.000000
0.625  0.000000  0.000000  0.000000  -29.254454836033336  2.963517156981221  11.400071683068559  68.50436042535856  8.341011019424275  -6.244077928666149  0.9715140339052687  35.32101449872692  3.7212617436663935  30.057962057822515  120.000000
0.65  0.000000  0.000000  0.000000  -29.560631428351726  3.0746792296090475  11.772949329073029  68.82618969326658  8.911843871550733  -6.098879605912953  0.4553944028167953  36.7389541297677  2.660828373613262  29.853874887592006  120.000000
0.675  0.000000  0.000000  0.000000  -29.851372149666645  3.189650134079925  12.139269812212616  69.0993288440447  9.454386854583655  -5.9600739073210836  -0.02124642139549176  38.17505835405487  1.614681149280926  29.64903082516031  120.000000
0.7000000000000001  0.000000  0.000000  0.000000  -30.129275617956907  3.310053856869214  12.49988343678595  69.32439481962139  9.964238159954512  -5.8267736572884  -0.4602337303600092  39.62056678629106  0.5927254317034223  29.44645555159876  120.000000
0.7250000000000001  0.000000  0.000000  0.000000  -30.39806643362208  3.4373741712096035  12.856525592350089  69.50392705189137  10.438077709713978  -5.698559754554582  -0.8628040137878215  41.066900993651046  -0.39717179598026753  29.245740001612198  120.000000
0.75  0.000000  0.000000  0.000000  -30.660812867816507  3.572290740598655  13.21121817762501  69.64147923476433  10.87389297061442  -5.574988130100169  -1.229872732664848  42.50599775698696  -1.3487785082707422  29.043772356388427  120.000000
0.775  0.000000  0.000000  0.000000  -30.920750613879004  3.714614106476645  13.566231109445477  69.74161239124595  11.270367016558584  -5.455689665141995  -1.5620293897772375  43.93038849458663  -2.2583032391955875  28.835823404673697  120.000000
0.8  0.000000  0.000000  0.000000  -31.179767233762654  3.863607141935432  13.923071788888603  69.80947297849406  11.62699830253521  -5.340329582945053  -1.86032782752889  45.333439029012446  -3.1240412572768075  28.61653439707637  120.000000
0.8250000000000001  0.000000  0.000000  0.000000  -31.43927595689887  4.017880279300074  14.282789226998068  69.85076981125854  11.943800837058323  -5.228672961368939  -2.126492865736555  46.70926433977306  -3.9465634521320765  28.380627128329518  120.000000
0.8500000000000001  0.000000  0.000000  0.000000  -31.69914473689251  4.175761097315156  14.64549379790313  69.87147648521741  12.221386654210038  -5.120236457149259  -2.3632428481437793  48.05273165188095  -4.728483328438904  28.123537760834076  120.000000
0.875  0.000000  0.000000  0.000000  -31.958682669361707  4.335374646154234  15.010832826763755  69.8776032660041  12.460963208992311  -5.014412181364914  -2.5741510012508333  49.35908830128647  -5.4738158514373625  27.841802311405917  120.000000
0.9  0.000000  0.000000  0.000000  -32.21616801050297  4.49507690817483  15.377886626964454  69.87494942965597  12.664360369419342  -4.910125511567517  -2.7635574419041777  50.62381195467994  -6.187650072751954  27.533733561670875  120.000000
0.925  0.000000  0.000000  0.000000  -32.47001629683683  4.653586522515583  15.74571877401255  69.86871781525466  12.834116941472395  -4.806046819622163  -2.936236655847571  51.84213247899158  -6.87518816784674  27.199931857849194  120.000000
0.9500000000000001  0.000000  0.000000  0.000000  -32.71828251606967  4.8101218084383435  16.113441261598965  69.86354486346502  12.973546351330839  -4.700226550155128  -3.0970078460729464  53.00919836387628  -7.541730469358371  26.84409371385589  120.000000
0.9750000000000001  0.000000  0.000000  0.000000  -32.95949497759614  4.964481881141652  16.48102011951451  69.863447036515  13.086737476341494  -4.590274428843349  -3.2501036646743957  54.119891168192545  -8.192187776054192  26.473060560416073  120.000000
1.0  0.000000  0.000000  0.000000  -33.1923668683397  5.116854173426648  16.848793267260227  69.87183605065808  13.17810356148956  -4.473460404161823  -3.399373999328569  55.169287442525324  -8.831206730369475  26.096020076112232  120.000000
1.0250000000000001  0.000000  0.000000  0.000000  -33.41704416207701  5.267822725372152  17.21762148104145  69.89129140053234  13.251932392734428  -4.347206344460269  -3.5480407426949836  56.1523431055525  -9.463058689972506  25.723053987296662  120.000000
1.05  0.000000  0.000000  0.000000  -33.6339826154299  5.417893460611131  17.58810660252022  69.92362044030473  13.312219601942537  -4.209192180814674  -3.698610224921373  57.064879725835894  -10.091991699533764  25.364124894244885  120.000000
1.075  0.000000  0.000000  0.000000  -33.8450099203611  5.567590528645844  17.960939423558354  69.96991825628425  13.362401268505746  -4.057708277051083  -3.852388620707786  57.90330128945355  -10.722173403699191  25.027887440117713  120.000000
